<svg width="11" height="18" viewBox="0 0 11 18" fill="none" xmlns="http://www.w3.org/2000/svg">
<path d="M10.6629 8.43802L0.600448 0.578648C0.574155 0.557947 0.542555 0.545083 0.50928 0.541532C0.476004 0.537981 0.442402 0.543887 0.412332 0.558572C0.382262 0.573258 0.356944 0.596127 0.339285 0.624553C0.321627 0.652979 0.312343 0.685809 0.312502 0.719273V2.44472C0.312502 2.55409 0.363841 2.659 0.448663 2.72597L8.48438 9.00052L0.448663 15.2751C0.361609 15.342 0.312502 15.447 0.312502 15.5563V17.2818C0.312502 17.4313 0.484377 17.5139 0.600448 17.4224L10.6629 9.56302C10.7485 9.49631 10.8177 9.41097 10.8652 9.3135C10.9128 9.21603 10.9376 9.10899 10.9376 9.00052C10.9376 8.89206 10.9128 8.78502 10.8652 8.68754C10.8177 8.59007 10.7485 8.50474 10.6629 8.43802Z" fill="black" fill-opacity="0.85"/>
</svg>
